<svg xmlns="http://www.w3.org/2000/svg" width="48" height="48" fill="none" viewBox="0 0 48 48"><path fill="url(#a)" d="M23.6 43.95C10.58 43.95 0 35.44 0 23.98S10.59 4 23.6 4"/><path fill="url(#b)" d="M23.6 4c13.02 0 23.61 8.52 23.61 19.98s-10.59 19.97-23.6 19.97"/><path fill="url(#c)" d="M45.64 23.95c0 10.74-9.32 19.44-22.04 19.44S1.56 34.69 1.56 23.95 10.9 4.5 23.6 4.5s22.04 8.7 22.04 19.45"/><path fill="url(#d)" d="M26.64 20.51a.6.6 0 0 1-.6.6h-1.53a.6.6 0 0 1-.59-.6v-1.53a.6.6 0 0 1 .6-.6h1.54a.6.6 0 0 1 .6.6v1.54z"/><path fill="url(#e)" d="M26.1 16.81a.47.47 0 0 1-.47.48H24.4a.5.5 0 0 1-.48-.48V15.6a.5.5 0 0 1 .48-.48h1.22a.47.47 0 0 1 .48.48v1.22z"/><path fill="url(#f)" d="M29.87 18.91a.5.5 0 0 1-.5.5H28.1a.5.5 0 0 1-.49-.5v-1.27a.5.5 0 0 1 .5-.49h1.26a.5.5 0 0 1 .5.5z"/><path fill="url(#g)" d="M28.72 15.54a.45.45 0 0 1-.45.45h-1.13a.44.44 0 0 1-.44-.45v-1.13a.44.44 0 0 1 .44-.44h1.13a.45.45 0 0 1 .45.44z"/><path fill="url(#h)" d="M25.39 11.27a.3.3 0 0 1-.32.32h-.84a.3.3 0 0 1-.32-.32v-.84a.3.3 0 0 1 .32-.32h.84a.33.33 0 0 1 .32.32z"/><path fill="url(#i)" d="M36.81 19.42a.3.3 0 0 1-.29.3h-.75a.3.3 0 0 1-.3-.3v-.75a.3.3 0 0 1 .3-.3h.75a.3.3 0 0 1 .3.3z"/><path fill="url(#j)" d="M32.73 13.2a.3.3 0 0 1-.3.3h-.77a.3.3 0 0 1-.3-.3v-.78a.3.3 0 0 1 .3-.3h.77a.3.3 0 0 1 .3.3z"/><path fill="url(#k)" d="M34.55 12.6a.25.25 0 0 1-.26.27h-.68a.26.26 0 0 1-.27-.26v-.68a.27.27 0 0 1 .27-.27h.68a.3.3 0 0 1 .25.16q.01.06.01.1z"/><path fill="url(#l)" d="M34.8 18.5a.3.3 0 0 1-.18.26l-.1.02h-.76a.3.3 0 0 1-.3-.29v-.76a.3.3 0 0 1 .3-.3h.75a.3.3 0 0 1 .3.3v.75z"/><path fill="url(#m)" d="M25.05 9.15a.25.25 0 0 1-.25.25h-.65a.25.25 0 0 1-.24-.25V8.5a.24.24 0 0 1 .24-.25h.65a.25.25 0 0 1 .25.25z"/><path fill="url(#n)" d="M36.37 12.6a.23.23 0 0 1-.23.22h-.6a.24.24 0 0 1-.23-.23V12a.23.23 0 0 1 .23-.22h.6a.23.23 0 0 1 .23.22z"/><path fill="url(#o)" d="M38.44 20.7a.2.2 0 0 1-.23.21h-.59a.2.2 0 0 1-.22-.21v-.59a.23.23 0 0 1 .22-.22h.59a.23.23 0 0 1 .23.22z"/><path fill="url(#p)" d="M37.95 12.87a.16.16 0 0 1-.16.16h-.43a.16.16 0 0 1-.17-.16v-.42a.16.16 0 0 1 .17-.16h.42a.2.2 0 0 1 .16.16z"/><path fill="url(#q)" d="M39.23 22.16a.2.2 0 0 1-.17.17h-.4a.2.2 0 0 1-.12-.05.2.2 0 0 1-.04-.12v-.41a.16.16 0 0 1 .16-.16h.4a.2.2 0 0 1 .17.16z"/><path fill="url(#r)" d="M25.7 13.8a.4.4 0 0 1-.39.4h-1.03a.4.4 0 0 1-.4-.4v-1.03a.4.4 0 0 1 .4-.39h1.03a.4.4 0 0 1 .4.4z"/><path fill="url(#s)" d="M29.51 22.12a.47.47 0 0 1-.46.47h-1.2a.47.47 0 0 1-.46-.47v-1.2a.46.46 0 0 1 .46-.46h1.2a.47.47 0 0 1 .46.46z"/><path fill="url(#t)" d="M33.35 25.76a.3.3 0 0 1-.32.3h-.8a.3.3 0 0 1-.32-.3v-.82a.3.3 0 0 1 .32-.3h.81a.3.3 0 0 1 .32.3v.82z"/><path fill="url(#u)" d="M33.97 27.76a.24.24 0 0 1-.25.24h-.63a.24.24 0 0 1-.23-.24v-.63a.24.24 0 0 1 .23-.23h.63a.24.24 0 0 1 .25.23z"/><path fill="url(#v)" d="M34.2 29.48a.17.17 0 0 1-.18.17h-.44a.2.2 0 0 1-.17-.17v-.45a.2.2 0 0 1 .17-.16h.44a.2.2 0 0 1 .17.16z"/><path fill="url(#w)" d="M29.57 41.74a.2.2 0 0 1-.18.17h-.44a.2.2 0 0 1-.18-.17v-.44a.2.2 0 0 1 .18-.17h.44a.17.17 0 0 1 .18.17z"/><path fill="url(#x)" d="M32.04 23.63a.4.4 0 0 1-.39.37h-.99a.4.4 0 0 1-.39-.37v-1a.4.4 0 0 1 .4-.39h.98a.4.4 0 0 1 .39.39z"/><path fill="url(#y)" d="M32.51 18.18a.36.36 0 0 1-.36.36h-.92a.36.36 0 0 1-.36-.36v-.93a.36.36 0 0 1 .36-.36h.92a.36.36 0 0 1 .36.36z"/><path fill="url(#z)" d="M30.85 14.22a.37.37 0 0 1-.36.37h-.96a.37.37 0 0 1-.36-.37v-.94a.37.37 0 0 1 .36-.37h.95a.37.37 0 0 1 .36.37v.94z"/><path fill="url(#A)" d="m21.03 21.03.53 3.15-.54-.16.62 3.05-.5-.15.63 2.87-.38-.1.6 2.94-.38-.06.58 2.9-.34-.01.58 3.02-.32-.1.45 2.76-4.83.69h5.5V5.42a12 12 0 0 0-.3 4.02c.02.16-.6-1.44-.88-2.24q.1 1.81.8 3.47-.8-1.2-1.36-2.5.4 1.94 1.28 3.7a28 28 0 0 1-1.68-2.51q.54 1.87 1.58 3.53-1.05-1.12-1.81-2.46c.03.85 1.79 3.7 1.78 3.82q-1.12-1.22-2-2.66.61 2.12 1.95 3.86a29 29 0 0 1-2.1-2.62c.1 1.14 1.85 3.73 1.85 3.73-1.78-2.32-8.6-6.42-13.25-3.94q2.3-.42 4.6-.1c.32.07-2.6.32-3.27.78q2.36-.32 4.74-.32c-.35.13-2.63.42-3.1.92 1.58-.28 3.2-.33 4.78-.15.1.04-3.06.21-3.64.68q2.7-.21 5.38.19c-.85.09-3.16-.07-4.16.45a22 22 0 0 1 5.57.45c-.63 0-3.3-.26-4.31.34 1.93-.14 3.88.11 5.72.75-.6-.1-3.22-.6-4.53-.13q2.41.19 4.6 1.2c-1.83-.46-11.63-2.3-13.59 4.65q1.34-2.11 3.37-3.57a6.5 6.5 0 0 0-1.99 3.18 9 9 0 0 1 3.37-3.56S10.84 20 10.6 21.4a9.3 9.3 0 0 1 3.52-3.1 7 7 0 0 0-2.35 2.75c1-1.2 2.24-2.18 3.63-2.88a15 15 0 0 0-2.38 2.53c1.2-1.14 2.64-2 4.21-2.54a10 10 0 0 0-3.01 2.4c1.49-1 3.56-2.17 5.52-2.14 0 0-3.16.85-4.11 1.9 1.67-.62 3.45-.88 5.23-.75-1.5.43-8.6 3.19-7.33 10.37q.36-2.06 1.01-4.04.07 1.71.39 3.38.2-2.37.7-4.7-.01 1.74.34 3.46c.09-.27.3-3.76.72-4.34q-.23 1.72.1 3.43c.17-1.12.5-3.75.96-4.41q-.32 1.84.04 3.69.24-2.4 1.18-4.62-.3 1.9-.12 3.82c.14-.33.45-3.3 1.23-4.48q-.35 1.87-.18 3.75.39-1.98 1.15-3.84z"/><path fill="url(#B)" d="M27.5 41.7a.2.2 0 0 1-.23.2h-.56a.2.2 0 0 1-.22-.2v-.57a.2.2 0 0 1 .2-.22h.57a.2.2 0 0 1 .22.22v.57z"/><path fill="url(#C)" d="M24.83 7.42a.2.2 0 0 1-.2.2h-.5a.2.2 0 0 1-.2-.2v-.5a.2.2 0 0 1 .2-.2h.5a.2.2 0 0 1 .2.2z"/><path fill="url(#D)" d="M24.63 5.97a.15.15 0 0 1-.16.15h-.4a.15.15 0 0 1-.15-.15v-.4a.16.16 0 0 1 .15-.16h.4a.16.16 0 0 1 .16.16z"/><path fill="url(#E)" d="M26.02 31.22a.46.46 0 0 1-.47.45h-1.18a.45.45 0 0 1-.45-.45v-1.18a.46.46 0 0 1 .45-.46h1.18a.46.46 0 0 1 .46.46z"/><path fill="url(#F)" d="M26.47 24.3a.55.55 0 0 1-.55.56h-1.43a.55.55 0 0 1-.55-.55v-1.42a.55.55 0 0 1 .54-.55h1.43a.55.55 0 0 1 .55.55v1.42z"/><path fill="url(#G)" d="M26.25 28.03a.5.5 0 0 1-.5.5h-1.3a.5.5 0 0 1-.5-.5v-1.3a.5.5 0 0 1 .5-.5h1.3a.5.5 0 0 1 .5.5z"/><path fill="url(#H)" d="M25.21 41.63a.27.27 0 0 1-.27.28h-.71a.27.27 0 0 1-.28-.28v-.71a.27.27 0 0 1 .28-.28h.7a.3.3 0 0 1 .28.28z"/><path fill="url(#I)" d="M25.54 36.86a.36.36 0 0 1-.36.35h-.91a.36.36 0 0 1-.35-.35v-.92a.35.35 0 0 1 .35-.34h.9a.36.36 0 0 1 .37.34z"/><path fill="url(#J)" d="M25.31 39.4a.3.3 0 0 1-.3.3h-.77a.3.3 0 0 1-.3-.3v-.79a.3.3 0 0 1 .3-.3H25a.3.3 0 0 1 .3.3z"/><path fill="url(#K)" d="M25.64 34.03a.4.4 0 0 1-.38.4h-.98a.4.4 0 0 1-.38-.4v-.97a.4.4 0 0 1 .38-.38h.98a.4.4 0 0 1 .38.38z"/><defs><radialGradient id="a" cx="0" cy="0" r="1" gradientTransform="matrix(40.7539 0 0 43.5607 304.79 47.7)" gradientUnits="userSpaceOnUse"><stop stop-color="#fff"/><stop offset="0" stop-color="#FEFEFE"/><stop offset=".07" stop-color="#F9BABC"/><stop offset=".13" stop-color="#F48286"/><stop offset=".19" stop-color="#F0555B"/><stop offset=".24" stop-color="#EE363D"/><stop offset=".28" stop-color="#EC222A"/><stop offset=".31" stop-color="#EC1C24"/><stop offset=".48" stop-color="#AB1F18"/><stop offset=".6" stop-color="#E11C21"/><stop offset=".62" stop-color="#EC1C24"/></radialGradient><radialGradient id="b" cx="0" cy="0" r="1" gradientTransform="matrix(44.2625 0 0 43.5077 360.9 40.03)" gradientUnits="userSpaceOnUse"><stop offset=".09" stop-color="#EC1C24"/><stop offset=".12" stop-color="#D7191D"/><stop offset=".22" stop-color="#9A110A"/><stop offset=".27" stop-color="#820F03"/><stop offset=".32" stop-color="#860F04"/><stop offset=".38" stop-color="#941108"/><stop offset=".45" stop-color="#AB140F"/><stop offset=".51" stop-color="#CB1819"/><stop offset=".57" stop-color="#EC1C24"/><stop offset=".65" stop-color="#AD1A17"/><stop offset=".69" stop-color="#B91A19"/><stop offset=".77" stop-color="#DB1B21"/><stop offset=".8" stop-color="#E91C24"/><stop offset=".84" stop-color="#E01C22"/><stop offset=".92" stop-color="#C71F1E"/><stop offset=".93" stop-color="#C3201E"/></radialGradient><radialGradient id="c" cx="0" cy="0" r="1" gradientTransform="matrix(21.3045 0 0 20.1619 -22.94 22.61)" gradientUnits="userSpaceOnUse"><stop offset=".54" stop-color="#fff"/><stop offset=".66" stop-color="#FBFBFB"/><stop offset=".75" stop-color="#F2F2F2"/><stop offset=".83" stop-color="#E2E2E2"/><stop offset=".9" stop-color="#CBCBCB"/><stop offset=".93" stop-color="#BFBFBF"/><stop offset=".95" stop-color="#C3C3C3"/><stop offset=".97" stop-color="#D0D0D0"/><stop offset=".98" stop-color="#E6E6E6"/><stop offset="1" stop-color="#fff"/></radialGradient><radialGradient id="d" cx="0" cy="0" r="1" gradientTransform="matrix(3.44117 0 0 3.44368 24.08 18.54)" gradientUnits="userSpaceOnUse"><stop stop-color="#fff"/><stop offset=".08" stop-color="#CBE9C9"/><stop offset=".19" stop-color="#89CE83"/><stop offset=".28" stop-color="#60BD58"/><stop offset=".32" stop-color="#51B748"/><stop offset=".45" stop-color="#32A142"/><stop offset=".62" stop-color="#0D863C"/><stop offset=".71" stop-color="#007D3A"/><stop offset=".74" stop-color="#07803C"/><stop offset=".79" stop-color="#1A8B45"/><stop offset=".84" stop-color="#3A9D52"/><stop offset=".9" stop-color="#67B665"/><stop offset=".93" stop-color="#82C571"/></radialGradient><radialGradient id="e" cx="0" cy="0" r="1" gradientTransform="matrix(2.74647 0 0 2.74142 24.06 15.25)" gradientUnits="userSpaceOnUse"><stop stop-color="#fff"/><stop offset=".08" stop-color="#CBE9C9"/><stop offset=".19" stop-color="#89CE83"/><stop offset=".28" stop-color="#60BD58"/><stop offset=".32" stop-color="#51B748"/><stop offset=".45" stop-color="#32A142"/><stop offset=".62" stop-color="#0D863C"/><stop offset=".71" stop-color="#007D3A"/><stop offset=".74" stop-color="#07803C"/><stop offset=".79" stop-color="#1A8B45"/><stop offset=".84" stop-color="#3A9D52"/><stop offset=".9" stop-color="#67B665"/><stop offset=".93" stop-color="#82C571"/></radialGradient><radialGradient id="f" cx="0" cy="0" r="1" gradientTransform="matrix(2.85186 0 0 2.84175 27.75 17.3)" gradientUnits="userSpaceOnUse"><stop stop-color="#fff"/><stop offset=".08" stop-color="#CBE9C9"/><stop offset=".19" stop-color="#89CE83"/><stop offset=".28" stop-color="#60BD58"/><stop offset=".32" stop-color="#51B748"/><stop offset=".45" stop-color="#32A142"/><stop offset=".62" stop-color="#0D863C"/><stop offset=".71" stop-color="#007D3A"/><stop offset=".74" stop-color="#07803C"/><stop offset=".79" stop-color="#1A8B45"/><stop offset=".84" stop-color="#3A9D52"/><stop offset=".9" stop-color="#67B665"/><stop offset=".93" stop-color="#82C571"/></radialGradient><radialGradient id="g" cx="0" cy="0" r="1" gradientTransform="matrix(2.547 0 0 2.54822 26.82 14.09)" gradientUnits="userSpaceOnUse"><stop stop-color="#fff"/><stop offset=".08" stop-color="#CBE9C9"/><stop offset=".19" stop-color="#89CE83"/><stop offset=".28" stop-color="#60BD58"/><stop offset=".32" stop-color="#51B748"/><stop offset=".45" stop-color="#32A142"/><stop offset=".62" stop-color="#0D863C"/><stop offset=".71" stop-color="#007D3A"/><stop offset=".74" stop-color="#07803C"/><stop offset=".79" stop-color="#1A8B45"/><stop offset=".84" stop-color="#3A9D52"/><stop offset=".9" stop-color="#67B665"/><stop offset=".93" stop-color="#82C571"/></radialGradient><radialGradient id="h" cx="0" cy="0" r="1" gradientTransform="matrix(1.86355 0 0 1.86354 24 10.2)" gradientUnits="userSpaceOnUse"><stop stop-color="#fff"/><stop offset=".08" stop-color="#CBE9C9"/><stop offset=".19" stop-color="#89CE83"/><stop offset=".28" stop-color="#60BD58"/><stop offset=".32" stop-color="#51B748"/><stop offset=".45" stop-color="#32A142"/><stop offset=".62" stop-color="#0D863C"/><stop offset=".71" stop-color="#007D3A"/><stop offset=".74" stop-color="#07803C"/><stop offset=".79" stop-color="#1A8B45"/><stop offset=".84" stop-color="#3A9D52"/><stop offset=".9" stop-color="#67B665"/><stop offset=".93" stop-color="#82C571"/></radialGradient><radialGradient id="i" cx="0" cy="0" r="1" gradientTransform="matrix(1.6922 0 0 1.6884 35.55 18.46)" gradientUnits="userSpaceOnUse"><stop stop-color="#fff"/><stop offset=".08" stop-color="#CBE9C9"/><stop offset=".19" stop-color="#89CE83"/><stop offset=".28" stop-color="#60BD58"/><stop offset=".32" stop-color="#51B748"/><stop offset=".45" stop-color="#32A142"/><stop offset=".62" stop-color="#0D863C"/><stop offset=".71" stop-color="#007D3A"/><stop offset=".74" stop-color="#07803C"/><stop offset=".79" stop-color="#1A8B45"/><stop offset=".84" stop-color="#3A9D52"/><stop offset=".9" stop-color="#67B665"/><stop offset=".93" stop-color="#82C571"/></radialGradient><radialGradient id="j" cx="0" cy="0" r="1" gradientTransform="matrix(1.72482 0 0 1.72231 31.45 12.21)" gradientUnits="userSpaceOnUse"><stop stop-color="#fff"/><stop offset=".08" stop-color="#CBE9C9"/><stop offset=".19" stop-color="#89CE83"/><stop offset=".28" stop-color="#60BD58"/><stop offset=".32" stop-color="#51B748"/><stop offset=".45" stop-color="#32A142"/><stop offset=".62" stop-color="#0D863C"/><stop offset=".71" stop-color="#007D3A"/><stop offset=".74" stop-color="#07803C"/><stop offset=".79" stop-color="#1A8B45"/><stop offset=".84" stop-color="#3A9D52"/><stop offset=".9" stop-color="#67B665"/><stop offset=".93" stop-color="#82C571"/></radialGradient><radialGradient id="k" cx="0" cy="0" r="1" gradientTransform="matrix(1.52965 0 0 1.52084 33.42 11.74)" gradientUnits="userSpaceOnUse"><stop stop-color="#fff"/><stop offset=".08" stop-color="#CBE9C9"/><stop offset=".19" stop-color="#89CE83"/><stop offset=".28" stop-color="#60BD58"/><stop offset=".32" stop-color="#51B748"/><stop offset=".45" stop-color="#32A142"/><stop offset=".62" stop-color="#0D863C"/><stop offset=".71" stop-color="#007D3A"/><stop offset=".74" stop-color="#07803C"/><stop offset=".79" stop-color="#1A8B45"/><stop offset=".84" stop-color="#3A9D52"/><stop offset=".9" stop-color="#67B665"/><stop offset=".93" stop-color="#82C571"/></radialGradient><radialGradient id="l" cx="0" cy="0" r="1" gradientTransform="matrix(1.67847 0 0 1.68824 33.55 17.53)" gradientUnits="userSpaceOnUse"><stop stop-color="#fff"/><stop offset=".08" stop-color="#CBE9C9"/><stop offset=".19" stop-color="#89CE83"/><stop offset=".28" stop-color="#60BD58"/><stop offset=".32" stop-color="#51B748"/><stop offset=".45" stop-color="#32A142"/><stop offset=".62" stop-color="#0D863C"/><stop offset=".71" stop-color="#007D3A"/><stop offset=".74" stop-color="#07803C"/><stop offset=".79" stop-color="#1A8B45"/><stop offset=".84" stop-color="#3A9D52"/><stop offset=".9" stop-color="#67B665"/><stop offset=".93" stop-color="#82C571"/></radialGradient><radialGradient id="m" cx="0" cy="0" r="1" gradientTransform="matrix(1.43621 0 0 1.43583 27.94 8.32)" gradientUnits="userSpaceOnUse"><stop stop-color="#fff"/><stop offset=".08" stop-color="#CBE9C9"/><stop offset=".19" stop-color="#89CE83"/><stop offset=".28" stop-color="#60BD58"/><stop offset=".32" stop-color="#51B748"/><stop offset=".45" stop-color="#32A142"/><stop offset=".62" stop-color="#0D863C"/><stop offset=".71" stop-color="#007D3A"/><stop offset=".74" stop-color="#07803C"/><stop offset=".79" stop-color="#1A8B45"/><stop offset=".84" stop-color="#3A9D52"/><stop offset=".9" stop-color="#67B665"/><stop offset=".93" stop-color="#82C571"/></radialGradient><radialGradient id="n" cx="0" cy="0" r="1" gradientTransform="matrix(1.33666 0 0 1.33162 35.37 11.83)" gradientUnits="userSpaceOnUse"><stop stop-color="#fff"/><stop offset=".08" stop-color="#CBE9C9"/><stop offset=".19" stop-color="#89CE83"/><stop offset=".28" stop-color="#60BD58"/><stop offset=".32" stop-color="#51B748"/><stop offset=".45" stop-color="#32A142"/><stop offset=".62" stop-color="#0D863C"/><stop offset=".71" stop-color="#007D3A"/><stop offset=".74" stop-color="#07803C"/><stop offset=".79" stop-color="#1A8B45"/><stop offset=".84" stop-color="#3A9D52"/><stop offset=".9" stop-color="#67B665"/><stop offset=".93" stop-color="#82C571"/></radialGradient><radialGradient id="o" cx="0" cy="0" r="1" gradientTransform="matrix(1.2997 0 0 1.29902 32.67 19.95)" gradientUnits="userSpaceOnUse"><stop stop-color="#fff"/><stop offset=".08" stop-color="#CBE9C9"/><stop offset=".19" stop-color="#89CE83"/><stop offset=".28" stop-color="#60BD58"/><stop offset=".32" stop-color="#51B748"/><stop offset=".45" stop-color="#32A142"/><stop offset=".62" stop-color="#0D863C"/><stop offset=".71" stop-color="#007D3A"/><stop offset=".74" stop-color="#07803C"/><stop offset=".79" stop-color="#1A8B45"/><stop offset=".84" stop-color="#3A9D52"/><stop offset=".9" stop-color="#67B665"/><stop offset=".93" stop-color="#82C571"/></radialGradient><radialGradient id="p" cx="0" cy="0" r="1" gradientTransform="matrix(.93742 0 0 .93744 37.25 12.33)" gradientUnits="userSpaceOnUse"><stop stop-color="#fff"/><stop offset=".08" stop-color="#CBE9C9"/><stop offset=".19" stop-color="#89CE83"/><stop offset=".28" stop-color="#60BD58"/><stop offset=".32" stop-color="#51B748"/><stop offset=".45" stop-color="#32A142"/><stop offset=".62" stop-color="#0D863C"/><stop offset=".71" stop-color="#007D3A"/><stop offset=".74" stop-color="#07803C"/><stop offset=".79" stop-color="#1A8B45"/><stop offset=".84" stop-color="#3A9D52"/><stop offset=".9" stop-color="#67B665"/><stop offset=".93" stop-color="#82C571"/></radialGradient><radialGradient id="q" cx="0" cy="0" r="1" gradientTransform="matrix(.91962 0 0 .92589 38.54 21.64)" gradientUnits="userSpaceOnUse"><stop stop-color="#fff"/><stop offset=".08" stop-color="#CBE9C9"/><stop offset=".19" stop-color="#89CE83"/><stop offset=".28" stop-color="#60BD58"/><stop offset=".32" stop-color="#51B748"/><stop offset=".45" stop-color="#32A142"/><stop offset=".62" stop-color="#0D863C"/><stop offset=".71" stop-color="#007D3A"/><stop offset=".74" stop-color="#07803C"/><stop offset=".79" stop-color="#1A8B45"/><stop offset=".84" stop-color="#3A9D52"/><stop offset=".9" stop-color="#67B665"/><stop offset=".93" stop-color="#82C571"/></radialGradient><radialGradient id="r" cx="0" cy="0" r="1" gradientTransform="matrix(2.29509 0 0 2.29135 24 12.5)" gradientUnits="userSpaceOnUse"><stop stop-color="#fff"/><stop offset=".08" stop-color="#CBE9C9"/><stop offset=".19" stop-color="#89CE83"/><stop offset=".28" stop-color="#60BD58"/><stop offset=".32" stop-color="#51B748"/><stop offset=".45" stop-color="#32A142"/><stop offset=".62" stop-color="#0D863C"/><stop offset=".71" stop-color="#007D3A"/><stop offset=".74" stop-color="#07803C"/><stop offset=".79" stop-color="#1A8B45"/><stop offset=".84" stop-color="#3A9D52"/><stop offset=".9" stop-color="#67B665"/><stop offset=".93" stop-color="#82C571"/></radialGradient><radialGradient id="s" cx="0" cy="0" r="1" gradientTransform="matrix(2.67452 0 0 2.67954 27.51 20.6)" gradientUnits="userSpaceOnUse"><stop stop-color="#fff"/><stop offset=".08" stop-color="#CBE9C9"/><stop offset=".19" stop-color="#89CE83"/><stop offset=".28" stop-color="#60BD58"/><stop offset=".32" stop-color="#51B748"/><stop offset=".45" stop-color="#32A142"/><stop offset=".62" stop-color="#0D863C"/><stop offset=".71" stop-color="#007D3A"/><stop offset=".74" stop-color="#07803C"/><stop offset=".79" stop-color="#1A8B45"/><stop offset=".84" stop-color="#3A9D52"/><stop offset=".9" stop-color="#67B665"/><stop offset=".93" stop-color="#82C571"/></radialGradient><radialGradient id="t" cx="0" cy="0" r="1" gradientTransform="matrix(1.82123 0 0 1.81124 32 24.72)" gradientUnits="userSpaceOnUse"><stop stop-color="#fff"/><stop offset=".08" stop-color="#CBE9C9"/><stop offset=".19" stop-color="#89CE83"/><stop offset=".28" stop-color="#60BD58"/><stop offset=".32" stop-color="#51B748"/><stop offset=".45" stop-color="#32A142"/><stop offset=".62" stop-color="#0D863C"/><stop offset=".71" stop-color="#007D3A"/><stop offset=".74" stop-color="#07803C"/><stop offset=".79" stop-color="#1A8B45"/><stop offset=".84" stop-color="#3A9D52"/><stop offset=".9" stop-color="#67B665"/><stop offset=".93" stop-color="#82C571"/></radialGradient><radialGradient id="u" cx="0" cy="0" r="1" gradientTransform="matrix(1.39737 0 0 1.39622 32.92 26.96)" gradientUnits="userSpaceOnUse"><stop stop-color="#fff"/><stop offset=".08" stop-color="#CBE9C9"/><stop offset=".19" stop-color="#89CE83"/><stop offset=".28" stop-color="#60BD58"/><stop offset=".32" stop-color="#51B748"/><stop offset=".45" stop-color="#32A142"/><stop offset=".62" stop-color="#0D863C"/><stop offset=".71" stop-color="#007D3A"/><stop offset=".74" stop-color="#07803C"/><stop offset=".79" stop-color="#1A8B45"/><stop offset=".84" stop-color="#3A9D52"/><stop offset=".9" stop-color="#67B665"/><stop offset=".93" stop-color="#82C571"/></radialGradient><radialGradient id="v" cx="0" cy="0" r="1" gradientTransform="matrix(.98608 0 0 .98559 30.18 28.92)" gradientUnits="userSpaceOnUse"><stop stop-color="#fff"/><stop offset=".08" stop-color="#CBE9C9"/><stop offset=".19" stop-color="#89CE83"/><stop offset=".28" stop-color="#60BD58"/><stop offset=".32" stop-color="#51B748"/><stop offset=".45" stop-color="#32A142"/><stop offset=".62" stop-color="#0D863C"/><stop offset=".71" stop-color="#007D3A"/><stop offset=".74" stop-color="#07803C"/><stop offset=".79" stop-color="#1A8B45"/><stop offset=".84" stop-color="#3A9D52"/><stop offset=".9" stop-color="#67B665"/><stop offset=".93" stop-color="#82C571"/></radialGradient><radialGradient id="w" cx="0" cy="0" r="1" gradientTransform="matrix(.99264 0 0 .99127 24.28 41.18)" gradientUnits="userSpaceOnUse"><stop stop-color="#fff"/><stop offset=".08" stop-color="#CBE9C9"/><stop offset=".19" stop-color="#89CE83"/><stop offset=".28" stop-color="#60BD58"/><stop offset=".32" stop-color="#51B748"/><stop offset=".45" stop-color="#32A142"/><stop offset=".62" stop-color="#0D863C"/><stop offset=".71" stop-color="#007D3A"/><stop offset=".74" stop-color="#07803C"/><stop offset=".79" stop-color="#1A8B45"/><stop offset=".84" stop-color="#3A9D52"/><stop offset=".9" stop-color="#67B665"/><stop offset=".93" stop-color="#82C571"/></radialGradient><radialGradient id="x" cx="0" cy="0" r="1" gradientTransform="matrix(2.22741 0 0 2.22249 30.38 22.35)" gradientUnits="userSpaceOnUse"><stop stop-color="#fff"/><stop offset=".08" stop-color="#CBE9C9"/><stop offset=".19" stop-color="#89CE83"/><stop offset=".28" stop-color="#60BD58"/><stop offset=".32" stop-color="#51B748"/><stop offset=".45" stop-color="#32A142"/><stop offset=".62" stop-color="#0D863C"/><stop offset=".71" stop-color="#007D3A"/><stop offset=".74" stop-color="#07803C"/><stop offset=".79" stop-color="#1A8B45"/><stop offset=".84" stop-color="#3A9D52"/><stop offset=".9" stop-color="#67B665"/><stop offset=".93" stop-color="#82C571"/></radialGradient><radialGradient id="y" cx="0" cy="0" r="1" gradientTransform="matrix(2.06404 0 0 2.07281 30.97 17)" gradientUnits="userSpaceOnUse"><stop stop-color="#fff"/><stop offset=".08" stop-color="#CBE9C9"/><stop offset=".19" stop-color="#89CE83"/><stop offset=".28" stop-color="#60BD58"/><stop offset=".32" stop-color="#51B748"/><stop offset=".45" stop-color="#32A142"/><stop offset=".62" stop-color="#0D863C"/><stop offset=".71" stop-color="#007D3A"/><stop offset=".74" stop-color="#07803C"/><stop offset=".79" stop-color="#1A8B45"/><stop offset=".84" stop-color="#3A9D52"/><stop offset=".9" stop-color="#67B665"/><stop offset=".93" stop-color="#82C571"/></radialGradient><radialGradient id="z" cx="0" cy="0" r="1" gradientTransform="translate(29.28 13.01)scale(2.11303)" gradientUnits="userSpaceOnUse"><stop stop-color="#fff"/><stop offset=".08" stop-color="#CBE9C9"/><stop offset=".19" stop-color="#89CE83"/><stop offset=".28" stop-color="#60BD58"/><stop offset=".32" stop-color="#51B748"/><stop offset=".45" stop-color="#32A142"/><stop offset=".62" stop-color="#0D863C"/><stop offset=".71" stop-color="#007D3A"/><stop offset=".74" stop-color="#07803C"/><stop offset=".79" stop-color="#1A8B45"/><stop offset=".84" stop-color="#3A9D52"/><stop offset=".9" stop-color="#67B665"/><stop offset=".93" stop-color="#82C571"/></radialGradient><radialGradient id="A" cx="0" cy="0" r="1" gradientTransform="matrix(23.3167 0 0 23.3184 583.64 18.46)" gradientUnits="userSpaceOnUse"><stop offset=".02" stop-color="#fff"/><stop offset=".06" stop-color="#E1F2DF"/><stop offset=".18" stop-color="#94D28E"/><stop offset=".27" stop-color="#63BE5B"/><stop offset=".31" stop-color="#51B748"/><stop offset=".33" stop-color="#4BB045"/><stop offset=".59" stop-color="#15732E"/><stop offset=".71" stop-color="#005B26"/></radialGradient><radialGradient id="B" cx="0" cy="0" r="1" gradientTransform="matrix(1.25416 0 0 1.25547 23.87 40.98)" gradientUnits="userSpaceOnUse"><stop stop-color="#fff"/><stop offset=".08" stop-color="#CBE9C9"/><stop offset=".19" stop-color="#89CE83"/><stop offset=".28" stop-color="#60BD58"/><stop offset=".32" stop-color="#51B748"/><stop offset=".45" stop-color="#32A142"/><stop offset=".62" stop-color="#0D863C"/><stop offset=".71" stop-color="#007D3A"/><stop offset=".74" stop-color="#07803C"/><stop offset=".79" stop-color="#1A8B45"/><stop offset=".84" stop-color="#3A9D52"/><stop offset=".9" stop-color="#67B665"/><stop offset=".93" stop-color="#82C571"/></radialGradient><radialGradient id="C" cx="0" cy="0" r="1" gradientTransform="matrix(1.13781 0 0 1.13884 23.98 6.77)" gradientUnits="userSpaceOnUse"><stop stop-color="#fff"/><stop offset=".08" stop-color="#CBE9C9"/><stop offset=".19" stop-color="#89CE83"/><stop offset=".28" stop-color="#60BD58"/><stop offset=".32" stop-color="#51B748"/><stop offset=".45" stop-color="#32A142"/><stop offset=".62" stop-color="#0D863C"/><stop offset=".71" stop-color="#007D3A"/><stop offset=".74" stop-color="#07803C"/><stop offset=".79" stop-color="#1A8B45"/><stop offset=".84" stop-color="#3A9D52"/><stop offset=".9" stop-color="#67B665"/><stop offset=".93" stop-color="#82C571"/></radialGradient><radialGradient id="D" cx="0" cy="0" r="1" gradientTransform="matrix(.89428 0 0 .89427 27.04 5.45)" gradientUnits="userSpaceOnUse"><stop stop-color="#fff"/><stop offset=".08" stop-color="#CBE9C9"/><stop offset=".19" stop-color="#89CE83"/><stop offset=".28" stop-color="#60BD58"/><stop offset=".32" stop-color="#51B748"/><stop offset=".45" stop-color="#32A142"/><stop offset=".62" stop-color="#0D863C"/><stop offset=".71" stop-color="#007D3A"/><stop offset=".74" stop-color="#07803C"/><stop offset=".79" stop-color="#1A8B45"/><stop offset=".84" stop-color="#3A9D52"/><stop offset=".9" stop-color="#67B665"/><stop offset=".93" stop-color="#82C571"/></radialGradient><radialGradient id="E" cx="0" cy="0" r="1" gradientTransform="matrix(2.64349 0 0 2.63971 24.05 29.7)" gradientUnits="userSpaceOnUse"><stop stop-color="#fff"/><stop offset=".08" stop-color="#CBE9C9"/><stop offset=".19" stop-color="#89CE83"/><stop offset=".28" stop-color="#60BD58"/><stop offset=".32" stop-color="#51B748"/><stop offset=".45" stop-color="#32A142"/><stop offset=".62" stop-color="#0D863C"/><stop offset=".71" stop-color="#007D3A"/><stop offset=".74" stop-color="#07803C"/><stop offset=".79" stop-color="#1A8B45"/><stop offset=".84" stop-color="#3A9D52"/><stop offset=".9" stop-color="#67B665"/><stop offset=".93" stop-color="#82C571"/></radialGradient><radialGradient id="F" cx="0" cy="0" r="1" gradientTransform="matrix(3.18148 0 0 3.17521 24.1 22.5)" gradientUnits="userSpaceOnUse"><stop stop-color="#fff"/><stop offset=".08" stop-color="#CBE9C9"/><stop offset=".19" stop-color="#89CE83"/><stop offset=".28" stop-color="#60BD58"/><stop offset=".32" stop-color="#51B748"/><stop offset=".45" stop-color="#32A142"/><stop offset=".62" stop-color="#0D863C"/><stop offset=".71" stop-color="#007D3A"/><stop offset=".74" stop-color="#07803C"/><stop offset=".79" stop-color="#1A8B45"/><stop offset=".84" stop-color="#3A9D52"/><stop offset=".9" stop-color="#67B665"/><stop offset=".93" stop-color="#82C571"/></radialGradient><radialGradient id="G" cx="0" cy="0" r="1" gradientTransform="matrix(2.89811 0 0 2.90556 24.1 26.36)" gradientUnits="userSpaceOnUse"><stop stop-color="#fff"/><stop offset=".08" stop-color="#CBE9C9"/><stop offset=".19" stop-color="#89CE83"/><stop offset=".28" stop-color="#60BD58"/><stop offset=".32" stop-color="#51B748"/><stop offset=".45" stop-color="#32A142"/><stop offset=".62" stop-color="#0D863C"/><stop offset=".71" stop-color="#007D3A"/><stop offset=".74" stop-color="#07803C"/><stop offset=".79" stop-color="#1A8B45"/><stop offset=".84" stop-color="#3A9D52"/><stop offset=".9" stop-color="#67B665"/><stop offset=".93" stop-color="#82C571"/></radialGradient><radialGradient id="H" cx="0" cy="0" r="1" gradientTransform="matrix(1.5889 0 0 1.59016 24.03 40.72)" gradientUnits="userSpaceOnUse"><stop stop-color="#fff"/><stop offset=".08" stop-color="#CBE9C9"/><stop offset=".19" stop-color="#89CE83"/><stop offset=".28" stop-color="#60BD58"/><stop offset=".32" stop-color="#51B748"/><stop offset=".45" stop-color="#32A142"/><stop offset=".62" stop-color="#0D863C"/><stop offset=".71" stop-color="#007D3A"/><stop offset=".74" stop-color="#07803C"/><stop offset=".79" stop-color="#1A8B45"/><stop offset=".84" stop-color="#3A9D52"/><stop offset=".9" stop-color="#67B665"/><stop offset=".93" stop-color="#82C571"/></radialGradient><radialGradient id="I" cx="0" cy="0" r="1" gradientTransform="matrix(2.04281 0 0 2.03653 24.02 35.7)" gradientUnits="userSpaceOnUse"><stop stop-color="#fff"/><stop offset=".08" stop-color="#CBE9C9"/><stop offset=".19" stop-color="#89CE83"/><stop offset=".28" stop-color="#60BD58"/><stop offset=".32" stop-color="#51B748"/><stop offset=".45" stop-color="#32A142"/><stop offset=".62" stop-color="#0D863C"/><stop offset=".71" stop-color="#007D3A"/><stop offset=".74" stop-color="#07803C"/><stop offset=".79" stop-color="#1A8B45"/><stop offset=".84" stop-color="#3A9D52"/><stop offset=".9" stop-color="#67B665"/><stop offset=".93" stop-color="#82C571"/></radialGradient><radialGradient id="J" cx="0" cy="0" r="1" gradientTransform="matrix(1.74511 0 0 1.7388 24.01 38.4)" gradientUnits="userSpaceOnUse"><stop stop-color="#fff"/><stop offset=".08" stop-color="#CBE9C9"/><stop offset=".19" stop-color="#89CE83"/><stop offset=".28" stop-color="#60BD58"/><stop offset=".32" stop-color="#51B748"/><stop offset=".45" stop-color="#32A142"/><stop offset=".62" stop-color="#0D863C"/><stop offset=".71" stop-color="#007D3A"/><stop offset=".74" stop-color="#07803C"/><stop offset=".79" stop-color="#1A8B45"/><stop offset=".84" stop-color="#3A9D52"/><stop offset=".9" stop-color="#67B665"/><stop offset=".93" stop-color="#82C571"/></radialGradient><radialGradient id="K" cx="0" cy="0" r="1" gradientTransform="matrix(2.19319 0 0 2.19445 24 32.78)" gradientUnits="userSpaceOnUse"><stop stop-color="#fff"/><stop offset=".08" stop-color="#CBE9C9"/><stop offset=".19" stop-color="#89CE83"/><stop offset=".28" stop-color="#60BD58"/><stop offset=".32" stop-color="#51B748"/><stop offset=".45" stop-color="#32A142"/><stop offset=".62" stop-color="#0D863C"/><stop offset=".71" stop-color="#007D3A"/><stop offset=".74" stop-color="#07803C"/><stop offset=".79" stop-color="#1A8B45"/><stop offset=".84" stop-color="#3A9D52"/><stop offset=".9" stop-color="#67B665"/><stop offset=".93" stop-color="#82C571"/></radialGradient></defs></svg>